REM DIRINDEX 1\5,1\2\6,1\2\7,1\3\8,1\3\9,1\3\10,1\3\11,1\4\12,1\4\13,1\4\14
REM DIRNAME cjc042,folder01,folder02,folder03,folder04,folder05,folder06,folder07,folder08,folder09,folder10,folder11,folder12,folder13
TITLE ""
FILE "4Q_j_629-636.mp3" MP3
  TRACK 01 AUDIO
    TITLE "8:cjc042_0769"
    INDEX 01 00:00:00
  TRACK 02 AUDIO
    TITLE "0:"
    INDEX 01 00:01:36
  TRACK 03 AUDIO
    TITLE "9:cjc042_0770"
    INDEX 01 00:02:18
  TRACK 04 AUDIO
    TITLE "0:"
    INDEX 01 00:05:57
  TRACK 05 AUDIO
    TITLE "10:cjc042_0771"
    INDEX 01 00:06:30
  TRACK 06 AUDIO
    TITLE "0:"
    INDEX 01 00:10:33
  TRACK 07 AUDIO
    TITLE "11:cjc042_0772"
    INDEX 01 00:11:09
  TRACK 08 AUDIO
    TITLE "0:"
    INDEX 01 00:14:74
  TRACK 09 AUDIO
    TITLE "8:cjc042_0773"
    INDEX 01 00:15:52
  TRACK 10 AUDIO
    TITLE "0:"
    INDEX 01 00:17:21
  TRACK 11 AUDIO
    TITLE "9:cjc042_0774"
    INDEX 01 00:17:70
  TRACK 12 AUDIO
    TITLE "0:"
    INDEX 01 00:20:32
  TRACK 13 AUDIO
    TITLE "10:cjc042_0775"
    INDEX 01 00:21:09
  TRACK 14 AUDIO
    TITLE "0:"
    INDEX 01 00:23:65
  TRACK 15 AUDIO
    TITLE "11:cjc042_0776"
    INDEX 01 00:24:37
  TRACK 16 AUDIO
    TITLE "0:"
    INDEX 01 00:27:06
  TRACK 17 AUDIO
    TITLE "8:cjc042_0777"
    INDEX 01 00:27:55
  TRACK 18 AUDIO
    TITLE "0:"
    INDEX 01 00:29:13
  TRACK 19 AUDIO
    TITLE "9:cjc042_0778"
    INDEX 01 00:29:68
  TRACK 20 AUDIO
    TITLE "0:"
    INDEX 01 00:32:21
  TRACK 21 AUDIO
    TITLE "10:cjc042_0779"
    INDEX 01 00:32:70
  TRACK 22 AUDIO
    TITLE "0:"
    INDEX 01 00:36:60
  TRACK 23 AUDIO
    TITLE "11:cjc042_0780"
    INDEX 01 00:37:38
  TRACK 24 AUDIO
    TITLE "0:"
    INDEX 01 00:42:02
  TRACK 25 AUDIO
    TITLE "8:cjc042_0781"
    INDEX 01 00:42:57
  TRACK 26 AUDIO
    TITLE "0:"
    INDEX 01 00:44:56
  TRACK 27 AUDIO
    TITLE "9:cjc042_0782"
    INDEX 01 00:45:39
  TRACK 28 AUDIO
    TITLE "0:"
    INDEX 01 00:47:66
  TRACK 29 AUDIO
    TITLE "10:cjc042_0783"
    INDEX 01 00:48:44
  TRACK 30 AUDIO
    TITLE "0:"
    INDEX 01 00:51:38
  TRACK 31 AUDIO
    TITLE "11:cjc042_0784"
    INDEX 01 00:52:12
  TRACK 32 AUDIO
    TITLE "0:"
    INDEX 01 00:55:44
  TRACK 33 AUDIO
    TITLE "8:cjc042_0785"
    INDEX 01 00:56:22
  TRACK 34 AUDIO
    TITLE "0:"
    INDEX 01 00:58:01
  TRACK 35 AUDIO
    TITLE "9:cjc042_0786"
    INDEX 01 00:58:60
  TRACK 36 AUDIO
    TITLE "0:"
    INDEX 01 01:00:06
  TRACK 37 AUDIO
    TITLE "10:cjc042_0787"
    INDEX 01 01:00:57
  TRACK 38 AUDIO
    TITLE "0:"
    INDEX 01 01:03:35
  TRACK 39 AUDIO
    TITLE "11:cjc042_0788"
    INDEX 01 01:04:11
  TRACK 40 AUDIO
    TITLE "0:"
    INDEX 01 01:06:71
  TRACK 41 AUDIO
    TITLE "8:cjc042_0789"
    INDEX 01 01:07:49
  TRACK 42 AUDIO
    TITLE "0:"
    INDEX 01 01:09:14
  TRACK 43 AUDIO
    TITLE "9:cjc042_0790"
    INDEX 01 01:09:69
  TRACK 44 AUDIO
    TITLE "0:"
    INDEX 01 01:13:61
  TRACK 45 AUDIO
    TITLE "10:cjc042_0791"
    INDEX 01 01:14:35
  TRACK 46 AUDIO
    TITLE "0:"
    INDEX 01 01:18:23
  TRACK 47 AUDIO
    TITLE "11:cjc042_0792"
    INDEX 01 01:18:70
  TRACK 48 AUDIO
    TITLE "0:"
    INDEX 01 01:22:62
  TRACK 49 AUDIO
    TITLE "8:cjc042_0793"
    INDEX 01 01:23:34
  TRACK 50 AUDIO
    TITLE "0:"
    INDEX 01 01:24:59
  TRACK 51 AUDIO
    TITLE "9:cjc042_0794"
    INDEX 01 01:25:35
  TRACK 52 AUDIO
    TITLE "0:"
    INDEX 01 01:27:30
  TRACK 53 AUDIO
    TITLE "10:cjc042_0795"
    INDEX 01 01:28:02
  TRACK 54 AUDIO
    TITLE "0:"
    INDEX 01 01:30:58
  TRACK 55 AUDIO
    TITLE "11:cjc042_0796"
    INDEX 01 01:31:39
  TRACK 56 AUDIO
    TITLE "0:"
    INDEX 01 01:34:18
  TRACK 57 AUDIO
    TITLE "8:cjc042_0797"
    INDEX 01 01:34:69
  TRACK 58 AUDIO
    TITLE "0:"
    INDEX 01 01:36:25
  TRACK 59 AUDIO
    TITLE "9:cjc042_0798"
    INDEX 01 01:37:07
  TRACK 60 AUDIO
    TITLE "0:"
    INDEX 01 01:38:61
  TRACK 61 AUDIO
    TITLE "10:cjc042_0799"
    INDEX 01 01:39:37
  TRACK 62 AUDIO
    TITLE "0:"
    INDEX 01 01:43:09
  TRACK 63 AUDIO
    TITLE "11:cjc042_0800"
    INDEX 01 01:43:60
  TRACK 64 AUDIO
    TITLE "0:"
    INDEX 01 01:46:74
